<mxfile host="app.diagrams.net" agent="Mozilla/5.0 (Windows NT 10.0; Win64; x64) AppleWebKit/537.36 (KHTML, like Gecko) Chrome/130.0.0.0 Safari/537.36" version="24.8.4" pages="2">
  <diagram name="Page-1" id="rwrny3ytHrm-lC7YvDmL">
    <mxGraphModel dx="2850" dy="1778" grid="1" gridSize="10" guides="1" tooltips="1" connect="1" arrows="1" fold="1" page="1" pageScale="1" pageWidth="1100" pageHeight="850" math="0" shadow="0">
      <root>
        <mxCell id="0" />
        <mxCell id="1" parent="0" />
        <UserObject label="&lt;h2 class=&quot;regular dark weight-600 caps inline-block float-left medium-margin-right&quot; style=&quot;text-transform: uppercase; display: inline-block; float: left; color: rgb(70, 83, 94); font-weight: 600; margin-right: 10px; box-sizing: border-box; max-width: 100%; font-family: proxima-nova, &amp;quot;Open Sans&amp;quot;, sans-serif; font-style: normal; font-variant-ligatures: normal; font-variant-caps: normal; letter-spacing: normal; orphans: 2; text-align: start; text-indent: 0px; widows: 2; word-spacing: 1px; -webkit-text-stroke-width: 0px; white-space: normal; background-color: rgb(255, 255, 255); text-decoration-thickness: initial; text-decoration-style: initial; text-decoration-color: initial; font-size: 15px;&quot;&gt;&lt;font style=&quot;font-size: 15px;&quot;&gt;Theme 5&lt;/font&gt;&lt;/h2&gt;&lt;div class=&quot;section-line&quot; style=&quot;box-sizing: border-box; overflow: hidden; height: 24px; max-width: 100%; color: rgb(0, 0, 0); font-family: proxima-nova, &amp;quot;Open Sans&amp;quot;, sans-serif; font-style: normal; font-variant-ligatures: normal; font-variant-caps: normal; font-weight: 400; letter-spacing: normal; orphans: 2; text-align: start; text-indent: 0px; text-transform: none; widows: 2; word-spacing: 1px; -webkit-text-stroke-width: 0px; white-space: normal; background-color: rgb(255, 255, 255); text-decoration-thickness: initial; text-decoration-style: initial; text-decoration-color: initial; font-size: 15px;&quot;&gt;&lt;font style=&quot;font-size: 15px;&quot;&gt;&lt;span style=&quot;box-sizing: border-box; background-color: rgb(229, 231, 232); width: 624.938px; height: 4px; display: inline-block; border-radius: 25px; margin-top: 20px; max-width: 100%;&quot;&gt;&lt;/span&gt;&lt;/font&gt;&lt;/div&gt;&lt;div class=&quot;clear&quot; style=&quot;clear: both; box-sizing: border-box; max-width: 100%; color: rgb(0, 0, 0); font-family: proxima-nova, &amp;quot;Open Sans&amp;quot;, sans-serif; font-style: normal; font-variant-ligatures: normal; font-variant-caps: normal; font-weight: 400; letter-spacing: normal; orphans: 2; text-align: start; text-indent: 0px; text-transform: none; widows: 2; word-spacing: 1px; -webkit-text-stroke-width: 0px; white-space: normal; background-color: rgb(255, 255, 255); text-decoration-thickness: initial; text-decoration-style: initial; text-decoration-color: initial; font-size: 15px;&quot;&gt;&lt;/div&gt;&lt;div class=&quot;content less-margin-3 dark&quot; style=&quot;color: rgb(70, 83, 94); margin: 15px 0px 0px; box-sizing: border-box; max-width: 100%; font-family: proxima-nova, &amp;quot;Open Sans&amp;quot;, sans-serif; font-style: normal; font-variant-ligatures: normal; font-variant-caps: normal; letter-spacing: normal; orphans: 2; text-align: start; text-indent: 0px; text-transform: none; widows: 2; word-spacing: 1px; -webkit-text-stroke-width: 0px; white-space: normal; background-color: rgb(255, 255, 255); text-decoration-thickness: initial; text-decoration-style: initial; text-decoration-color: initial; font-weight: 400; line-height: 140%; font-size: 15px;&quot;&gt;&lt;p style=&quot;box-sizing: border-box; max-width: 100%;&quot;&gt;&lt;strong style=&quot;font-weight: 600; box-sizing: border-box; max-width: 100%;&quot;&gt;&lt;font style=&quot;font-size: 15px;&quot;&gt;&lt;img alt=&quot;&quot; height=&quot;auto&quot; src=&quot;https://uc.hackerearth.com/he-public-data/Theme_506c4100.jpg&quot; width=&quot;auto&quot; style=&quot;box-sizing: border-box; max-width: 100%;&quot;&gt;&lt;/font&gt;&lt;/strong&gt;&lt;/p&gt;&lt;p style=&quot;box-sizing: border-box; max-width: 100%; line-height: 140%;&quot;&gt;&lt;strong style=&quot;font-weight: 600; box-sizing: border-box; max-width: 100%;&quot;&gt;&lt;font style=&quot;font-size: 15px;&quot;&gt;Task&lt;/font&gt;&lt;/strong&gt;&lt;/p&gt;&lt;p style=&quot;box-sizing: border-box; max-width: 100%; line-height: 140%;&quot;&gt;&lt;font style=&quot;font-size: 15px;&quot;&gt;Create a platform to redefine the user experience for Indian SMBs selling globally - this could include features like real-time communication, seamless document sharing and management, query resolution, and other relevant tools.&lt;/font&gt;&lt;/p&gt;&lt;/div&gt;" link="&lt;h2 class=&quot;regular dark weight-600 caps inline-block float-left medium-margin-right&quot; style=&quot;text-transform: uppercase; display: inline-block; float: left; font-size: 14px; color: rgb(70, 83, 94); font-weight: 600; margin-right: 10px; box-sizing: border-box; max-width: 100%; font-family: proxima-nova, &amp;quot;Open Sans&amp;quot;, sans-serif; font-style: normal; font-variant-ligatures: normal; font-variant-caps: normal; letter-spacing: normal; orphans: 2; text-align: start; text-indent: 0px; widows: 2; word-spacing: 1px; -webkit-text-stroke-width: 0px; white-space: normal; background-color: rgb(255, 255, 255); text-decoration-thickness: initial; text-decoration-style: initial; text-decoration-color: initial;&quot;&gt;Theme 5&lt;/h2&gt;&lt;div class=&quot;section-line&quot; style=&quot;box-sizing: border-box; overflow: hidden; height: 24px; max-width: 100%; color: rgb(0, 0, 0); font-family: proxima-nova, &amp;quot;Open Sans&amp;quot;, sans-serif; font-size: 14px; font-style: normal; font-variant-ligatures: normal; font-variant-caps: normal; font-weight: 400; letter-spacing: normal; orphans: 2; text-align: start; text-indent: 0px; text-transform: none; widows: 2; word-spacing: 1px; -webkit-text-stroke-width: 0px; white-space: normal; background-color: rgb(255, 255, 255); text-decoration-thickness: initial; text-decoration-style: initial; text-decoration-color: initial;&quot;&gt;&lt;span style=&quot;box-sizing: border-box; background-color: rgb(229, 231, 232); width: 624.938px; height: 4px; display: inline-block; border-radius: 25px; margin-top: 20px; max-width: 100%;&quot;&gt;&lt;/span&gt;&lt;/div&gt;&lt;div class=&quot;clear&quot; style=&quot;clear: both; box-sizing: border-box; max-width: 100%; color: rgb(0, 0, 0); font-family: proxima-nova, &amp;quot;Open Sans&amp;quot;, sans-serif; font-size: 14px; font-style: normal; font-variant-ligatures: normal; font-variant-caps: normal; font-weight: 400; letter-spacing: normal; orphans: 2; text-align: start; text-indent: 0px; text-transform: none; widows: 2; word-spacing: 1px; -webkit-text-stroke-width: 0px; white-space: normal; background-color: rgb(255, 255, 255); text-decoration-thickness: initial; text-decoration-style: initial; text-decoration-color: initial;&quot;&gt;&lt;/div&gt;&lt;div class=&quot;content less-margin-3 dark&quot; style=&quot;color: rgb(70, 83, 94); margin: 15px 0px 0px; box-sizing: border-box; max-width: 100%; font-family: proxima-nova, &amp;quot;Open Sans&amp;quot;, sans-serif; font-size: 14px; font-style: normal; font-variant-ligatures: normal; font-variant-caps: normal; font-weight: 400; letter-spacing: normal; orphans: 2; text-align: start; text-indent: 0px; text-transform: none; widows: 2; word-spacing: 1px; -webkit-text-stroke-width: 0px; white-space: normal; background-color: rgb(255, 255, 255); text-decoration-thickness: initial; text-decoration-style: initial; text-decoration-color: initial;&quot;&gt;&lt;p style=&quot;box-sizing: border-box; max-width: 100%;&quot;&gt;&lt;strong style=&quot;font-weight: 600; box-sizing: border-box; max-width: 100%;&quot;&gt;&lt;img alt=&quot;&quot; height=&quot;auto&quot; src=&quot;https://uc.hackerearth.com/he-public-data/Theme_506c4100.jpg&quot; width=&quot;auto&quot; style=&quot;box-sizing: border-box; max-width: 100%;&quot;&gt;&lt;/strong&gt;&lt;/p&gt;&lt;p style=&quot;box-sizing: border-box; max-width: 100%;&quot;&gt;&lt;strong style=&quot;font-weight: 600; box-sizing: border-box; max-width: 100%;&quot;&gt;Task&lt;/strong&gt;&lt;/p&gt;&lt;p style=&quot;box-sizing: border-box; max-width: 100%;&quot;&gt;Create a platform to redefine the user experience for Indian SMBs selling globally - this could include features like real-time communication, seamless document sharing and management, query resolution, and other relevant tools.&lt;/p&gt;&lt;/div&gt;" id="ejGgYSm7kGXGHLqVVWIp-1">
          <mxCell style="text;whiteSpace=wrap;html=1;" vertex="1" parent="1">
            <mxGeometry x="-350" y="-160" width="840" height="320" as="geometry" />
          </mxCell>
        </UserObject>
        <mxCell id="ejGgYSm7kGXGHLqVVWIp-17" style="edgeStyle=orthogonalEdgeStyle;rounded=0;orthogonalLoop=1;jettySize=auto;html=1;entryX=0.5;entryY=0;entryDx=0;entryDy=0;" edge="1" parent="1" source="ejGgYSm7kGXGHLqVVWIp-2" target="ejGgYSm7kGXGHLqVVWIp-10">
          <mxGeometry relative="1" as="geometry" />
        </mxCell>
        <mxCell id="ejGgYSm7kGXGHLqVVWIp-18" style="edgeStyle=orthogonalEdgeStyle;rounded=0;orthogonalLoop=1;jettySize=auto;html=1;" edge="1" parent="1" source="ejGgYSm7kGXGHLqVVWIp-2" target="ejGgYSm7kGXGHLqVVWIp-12">
          <mxGeometry relative="1" as="geometry" />
        </mxCell>
        <mxCell id="ejGgYSm7kGXGHLqVVWIp-2" value="Real-time Communication&amp;nbsp;" style="rounded=1;whiteSpace=wrap;html=1;" vertex="1" parent="1">
          <mxGeometry x="980" y="250" width="120" height="60" as="geometry" />
        </mxCell>
        <mxCell id="ejGgYSm7kGXGHLqVVWIp-25" style="edgeStyle=orthogonalEdgeStyle;rounded=0;orthogonalLoop=1;jettySize=auto;html=1;" edge="1" parent="1" source="ejGgYSm7kGXGHLqVVWIp-4" target="ejGgYSm7kGXGHLqVVWIp-23">
          <mxGeometry relative="1" as="geometry">
            <Array as="points">
              <mxPoint x="1560" y="370" />
              <mxPoint x="1680" y="370" />
            </Array>
          </mxGeometry>
        </mxCell>
        <mxCell id="ejGgYSm7kGXGHLqVVWIp-4" value="Seamless doc sharing and management&amp;nbsp;" style="rounded=1;whiteSpace=wrap;html=1;" vertex="1" parent="1">
          <mxGeometry x="1500" y="250" width="120" height="60" as="geometry" />
        </mxCell>
        <mxCell id="ejGgYSm7kGXGHLqVVWIp-10" value="Language&amp;nbsp;&lt;div&gt;Barrier&amp;nbsp;&lt;/div&gt;" style="rounded=1;whiteSpace=wrap;html=1;" vertex="1" parent="1">
          <mxGeometry x="870" y="430" width="120" height="60" as="geometry" />
        </mxCell>
        <mxCell id="ejGgYSm7kGXGHLqVVWIp-11" value="1. language barriers &#xa;2. Regulatory Requirements &#xa;3. document Interpretation (which ig is most common as for the beginners SBM&#39;s this is a common challenge as it changes with type of product and place&#xa;4. A necessary Category is transport (land / air /water)" style="text;whiteSpace=wrap;fontSize=20;" vertex="1" parent="1">
          <mxGeometry x="-350" y="220" width="600" height="170" as="geometry" />
        </mxCell>
        <mxCell id="ejGgYSm7kGXGHLqVVWIp-12" value="Real-time survey between prices and services.&amp;nbsp;" style="rounded=1;whiteSpace=wrap;html=1;" vertex="1" parent="1">
          <mxGeometry x="1090" y="430" width="120" height="60" as="geometry" />
        </mxCell>
        <mxCell id="ejGgYSm7kGXGHLqVVWIp-13" value="&lt;font style=&quot;font-size: 15px;&quot;&gt;This can resolved using Data fetching API which looks 24/7 on the official websites for prices and offers and combined a simple AI Chatbot which can suggest the followings -&lt;/font&gt;&lt;div style=&quot;font-size: 15px;&quot;&gt;&lt;font style=&quot;font-size: 15px;&quot;&gt;&lt;span style=&quot;white-space: pre;&quot;&gt;&#x9;&lt;/span&gt;1. Mode of transport&amp;nbsp;&lt;/font&gt;&lt;/div&gt;&lt;div style=&quot;font-size: 15px;&quot;&gt;&lt;font style=&quot;font-size: 15px;&quot;&gt;&lt;span style=&quot;white-space: pre;&quot;&gt;&#x9;&lt;/span&gt;2.&amp;nbsp;Shipping Owner and Carrier details&amp;nbsp;&lt;/font&gt;&lt;/div&gt;&lt;div style=&quot;font-size: 15px;&quot;&gt;&lt;font style=&quot;font-size: 15px;&quot;&gt;&lt;span style=&quot;white-space: pre;&quot;&gt;&#x9;&lt;/span&gt;3. Rating and customer feedback about the Shipping Company.&amp;nbsp;&lt;/font&gt;&lt;/div&gt;" style="text;html=1;align=left;verticalAlign=middle;whiteSpace=wrap;rounded=0;" vertex="1" parent="1">
          <mxGeometry x="850" y="680" width="360" height="140" as="geometry" />
        </mxCell>
        <mxCell id="ejGgYSm7kGXGHLqVVWIp-16" value="&lt;font style=&quot;font-size: 15px;&quot;&gt;Language conversion tool -&amp;nbsp;&lt;span style=&quot;color: rgb(32, 33, 36); font-family: Roboto, arial, sans-serif; white-space-collapse: preserve; background-color: rgb(255, 255, 255);&quot;&gt;Libretranslate&lt;/span&gt;&amp;nbsp;(&amp;nbsp;https://libretranslate.com/ )&lt;/font&gt;" style="text;html=1;align=left;verticalAlign=middle;whiteSpace=wrap;rounded=0;" vertex="1" parent="1">
          <mxGeometry x="850" y="610" width="290" height="50" as="geometry" />
        </mxCell>
        <mxCell id="ejGgYSm7kGXGHLqVVWIp-20" value="Solution phase" style="rounded=1;whiteSpace=wrap;html=1;" vertex="1" parent="1">
          <mxGeometry x="460" y="640" width="120" height="60" as="geometry" />
        </mxCell>
        <mxCell id="ejGgYSm7kGXGHLqVVWIp-21" value="" style="endArrow=none;dashed=1;html=1;dashPattern=1 3;strokeWidth=2;rounded=0;" edge="1" parent="1">
          <mxGeometry width="50" height="50" relative="1" as="geometry">
            <mxPoint x="790" y="600" as="sourcePoint" />
            <mxPoint x="1240" y="600" as="targetPoint" />
          </mxGeometry>
        </mxCell>
        <mxCell id="ejGgYSm7kGXGHLqVVWIp-22" value="&lt;span style=&quot;font-size: 20px; text-align: left;&quot;&gt;Regulatory Requirements&lt;/span&gt;" style="rounded=1;whiteSpace=wrap;html=1;" vertex="1" parent="1">
          <mxGeometry x="1360" y="430" width="170" height="60" as="geometry" />
        </mxCell>
        <mxCell id="ejGgYSm7kGXGHLqVVWIp-23" value="&lt;span style=&quot;font-size: 20px; text-align: left;&quot;&gt;Document Interpretation&lt;/span&gt;" style="rounded=1;whiteSpace=wrap;html=1;" vertex="1" parent="1">
          <mxGeometry x="1620" y="430" width="150" height="60" as="geometry" />
        </mxCell>
        <mxCell id="ejGgYSm7kGXGHLqVVWIp-26" style="edgeStyle=orthogonalEdgeStyle;rounded=0;orthogonalLoop=1;jettySize=auto;html=1;entryX=0.474;entryY=0.034;entryDx=0;entryDy=0;entryPerimeter=0;" edge="1" parent="1" source="ejGgYSm7kGXGHLqVVWIp-4" target="ejGgYSm7kGXGHLqVVWIp-22">
          <mxGeometry relative="1" as="geometry" />
        </mxCell>
        <mxCell id="ejGgYSm7kGXGHLqVVWIp-27" value="" style="endArrow=none;dashed=1;html=1;dashPattern=1 3;strokeWidth=2;rounded=0;" edge="1" parent="1">
          <mxGeometry width="50" height="50" relative="1" as="geometry">
            <mxPoint x="1310" y="600" as="sourcePoint" />
            <mxPoint x="1830" y="600" as="targetPoint" />
          </mxGeometry>
        </mxCell>
        <mxCell id="6NsfQsbsH2uMWn0xJ8fB-2" value="&lt;div style=&quot;&quot;&gt;&lt;span style=&quot;-webkit-user-drag: none; -webkit-tap-highlight-color: transparent; margin: 0px; padding: 0px; user-select: text; color: rgb(26, 26, 26); font-family: Arial, Arial_EmbeddedFont, Arial_MSFontService, sans-serif; font-size: 13.3333px; font-variant-ligatures: none; white-space-collapse: preserve; background-color: rgb(255, 255, 255);&quot; class=&quot;NormalTextRun SCXW246972 BCX0&quot;&gt;International data privacy laws &lt;/span&gt;&lt;span style=&quot;-webkit-user-drag: none; -webkit-tap-highlight-color: transparent; margin: 0px; padding: 0px; user-select: text; color: rgb(26, 26, 26); font-family: Arial, Arial_EmbeddedFont, Arial_MSFontService, sans-serif; font-size: 13.3333px; font-variant-ligatures: none; white-space-collapse: preserve; background-color: rgb(255, 255, 255);&quot; class=&quot;NormalTextRun SCXW246972 BCX0&quot;&gt;like &lt;/span&gt;&lt;span style=&quot;-webkit-user-drag: none; -webkit-tap-highlight-color: transparent; margin: 0px; padding: 0px; user-select: text; color: rgb(26, 26, 26); font-family: Arial, Arial_EmbeddedFont, Arial_MSFontService, sans-serif; font-size: 13.3333px; font-variant-ligatures: none; white-space-collapse: preserve; background-color: rgb(255, 255, 255);&quot; class=&quot;NormalTextRun SCXW246972 BCX0&quot;&gt;GDPR&lt;/span&gt;&lt;span style=&quot;-webkit-user-drag: none; -webkit-tap-highlight-color: transparent; margin: 0px; padding: 0px; user-select: text; color: rgb(26, 26, 26); font-family: Arial, Arial_EmbeddedFont, Arial_MSFontService, sans-serif; font-size: 13.3333px; font-variant-ligatures: none; white-space-collapse: preserve; background-color: rgb(255, 255, 255);&quot; class=&quot;NormalTextRun SCXW246972 BCX0&quot;&gt; (&lt;/span&gt;&lt;span style=&quot;-webkit-user-drag: none; -webkit-tap-highlight-color: transparent; margin: 0px; padding: 0px; user-select: text; color: rgb(26, 26, 26); font-family: Arial, Arial_EmbeddedFont, Arial_MSFontService, sans-serif; font-size: 13.3333px; font-variant-ligatures: none; white-space-collapse: preserve; background-color: rgb(255, 255, 255);&quot; class=&quot;NormalTextRun SCXW246972 BCX0&quot;&gt;general data protection &lt;/span&gt;&lt;span style=&quot;-webkit-user-drag: none; -webkit-tap-highlight-color: transparent; margin: 0px; padding: 0px; user-select: text; color: rgb(26, 26, 26); font-family: Arial, Arial_EmbeddedFont, Arial_MSFontService, sans-serif; font-size: 13.3333px; font-variant-ligatures: none; white-space-collapse: preserve; background-color: rgb(255, 255, 255);&quot; class=&quot;NormalTextRun SCXW246972 BCX0&quot;&gt;regulation&lt;/span&gt;&lt;span style=&quot;-webkit-user-drag: none; -webkit-tap-highlight-color: transparent; margin: 0px; padding: 0px; user-select: text; color: rgb(26, 26, 26); font-family: Arial, Arial_EmbeddedFont, Arial_MSFontService, sans-serif; font-size: 13.3333px; font-variant-ligatures: none; white-space-collapse: preserve; background-color: rgb(255, 255, 255);&quot; class=&quot;NormalTextRun SCXW246972 BCX0&quot;&gt;)&lt;/span&gt;&lt;span style=&quot;-webkit-user-drag: none; -webkit-tap-highlight-color: transparent; margin: 0px; padding: 0px; user-select: text; color: rgb(26, 26, 26); font-family: Arial, Arial_EmbeddedFont, Arial_MSFontService, sans-serif; font-size: 13.3333px; font-variant-ligatures: none; white-space-collapse: preserve; background-color: rgb(255, 255, 255);&quot; class=&quot;NormalTextRun SCXW246972 BCX0&quot;&gt; and &lt;/span&gt;&lt;span style=&quot;-webkit-user-drag: none; -webkit-tap-highlight-color: transparent; margin: 0px; padding: 0px; user-select: text; color: rgb(26, 26, 26); font-family: Arial, Arial_EmbeddedFont, Arial_MSFontService, sans-serif; font-size: 13.3333px; font-variant-ligatures: none; white-space-collapse: preserve; background-color: rgb(255, 255, 255);&quot; class=&quot;NormalTextRun SCXW246972 BCX0&quot;&gt;CCPA&lt;/span&gt;&lt;span style=&quot;-webkit-user-drag: none; -webkit-tap-highlight-color: transparent; margin: 0px; padding: 0px; user-select: text; color: rgb(26, 26, 26); font-family: Arial, Arial_EmbeddedFont, Arial_MSFontService, sans-serif; font-size: 13.3333px; font-variant-ligatures: none; white-space-collapse: preserve; background-color: rgb(255, 255, 255);&quot; class=&quot;NormalTextRun SCXW246972 BCX0&quot;&gt; (&lt;/span&gt;&lt;span style=&quot;-webkit-user-drag: none; -webkit-tap-highlight-color: transparent; margin: 0px; padding: 0px; user-select: text; color: rgb(26, 26, 26); font-family: Arial, Arial_EmbeddedFont, Arial_MSFontService, sans-serif; font-size: 13.3333px; font-variant-ligatures: none; white-space-collapse: preserve; background-color: rgb(255, 255, 255);&quot; class=&quot;NormalTextRun SCXW246972 BCX0&quot;&gt;California &lt;/span&gt;&lt;span style=&quot;-webkit-user-drag: none; -webkit-tap-highlight-color: transparent; margin: 0px; padding: 0px; user-select: text; color: rgb(26, 26, 26); font-family: Arial, Arial_EmbeddedFont, Arial_MSFontService, sans-serif; font-size: 13.3333px; font-variant-ligatures: none; white-space-collapse: preserve; background-color: rgb(255, 255, 255);&quot; class=&quot;NormalTextRun SCXW246972 BCX0&quot;&gt;consumer privacy act&lt;/span&gt;&lt;span style=&quot;-webkit-user-drag: none; -webkit-tap-highlight-color: transparent; margin: 0px; padding: 0px; user-select: text; color: rgb(26, 26, 26); font-family: Arial, Arial_EmbeddedFont, Arial_MSFontService, sans-serif; font-size: 13.3333px; font-variant-ligatures: none; white-space-collapse: preserve; background-color: rgb(255, 255, 255);&quot; class=&quot;NormalTextRun SCXW246972 BCX0&quot;&gt;) &lt;/span&gt;&lt;span style=&quot;background-color: initial;&quot;&gt;as well as transport Official Docs can be analyzed using tools like-&amp;nbsp;&lt;/span&gt;&lt;/div&gt;&lt;blockquote style=&quot;margin: 0 0 0 40px; border: none; padding: 0px;&quot;&gt;&lt;div style=&quot;&quot;&gt;&lt;span style=&quot;background-color: initial;&quot;&gt;1. Onetrust -&amp;nbsp;&lt;/span&gt;&lt;span style=&quot;background-color: initial;&quot;&gt;streamline risk management, enforce compliance, and optimize data while meeting regulatory.&lt;/span&gt;&lt;/div&gt;&lt;/blockquote&gt;&lt;blockquote style=&quot;margin: 0 0 0 40px; border: none; padding: 0px;&quot;&gt;&lt;div style=&quot;&quot;&gt;&lt;span style=&quot;background-color: initial;&quot;&gt;https://www.onetrust.com/&lt;/span&gt;&lt;/div&gt;&lt;/blockquote&gt;&lt;div style=&quot;&quot;&gt;&lt;span style=&quot;background-color: initial;&quot;&gt;&lt;br&gt;&lt;/span&gt;&lt;/div&gt;&lt;div style=&quot;&quot;&gt;&lt;span style=&quot;background-color: initial;&quot;&gt;&amp;nbsp;PowerBI - For data visualization which can be used by user for better understanding and&amp;nbsp;&lt;/span&gt;&lt;span style=&quot;background-color: initial;&quot;&gt;Real-time information.&lt;/span&gt;&lt;/div&gt;&lt;div style=&quot;&quot;&gt;&lt;span style=&quot;background-color: initial;&quot;&gt;&lt;br&gt;&lt;/span&gt;&lt;/div&gt;&lt;div style=&quot;&quot;&gt;&lt;span style=&quot;background-color: initial;&quot;&gt;Using the User business details AI powered chatbot can be implemented to answer the queries from the user .&lt;/span&gt;&lt;/div&gt;" style="text;html=1;align=left;verticalAlign=middle;whiteSpace=wrap;rounded=0;" vertex="1" parent="1">
          <mxGeometry x="1400" y="620" width="380" height="190" as="geometry" />
        </mxCell>
        <mxCell id="tAxAlkHRO4SXwAfs2fLI-1" value="&lt;font style=&quot;font-size: 15px;&quot;&gt;Interface Architecture&lt;/font&gt;" style="rounded=1;whiteSpace=wrap;html=1;" vertex="1" parent="1">
          <mxGeometry x="460" y="1010" width="120" height="60" as="geometry" />
        </mxCell>
      </root>
    </mxGraphModel>
  </diagram>
  <diagram id="8ku0Vu8ZHxd5BaApPQD5" name="Real-time updates ">
    <mxGraphModel dx="1050" dy="557" grid="1" gridSize="10" guides="1" tooltips="1" connect="1" arrows="1" fold="1" page="1" pageScale="1" pageWidth="1100" pageHeight="850" math="0" shadow="0">
      <root>
        <mxCell id="0" />
        <mxCell id="1" parent="0" />
      </root>
    </mxGraphModel>
  </diagram>
</mxfile>
